<svg width="152" height="35" viewBox="0 0 152 35" fill="none" xmlns="http://www.w3.org/2000/svg">
<path d="M65.5886 7.32861C67.5686 7.32861 69.2915 7.7529 70.7572 8.60147C72.2486 9.45004 73.3929 10.6586 74.1901 12.2272C74.9872 13.77 75.3858 15.5829 75.3858 17.6658C75.3858 18.2058 75.3729 18.6043 75.3472 18.8615H59.5329C59.7901 20.3529 60.4844 21.5872 61.6158 22.5643C62.7729 23.5158 64.1101 23.9915 65.6272 23.9915C68.1215 23.9915 69.8958 23.0786 70.9501 21.2529H74.7301C74.1129 23.0529 72.9686 24.5315 71.2972 25.6886C69.6258 26.82 67.7358 27.3858 65.6272 27.3858C63.7501 27.3858 62.0529 26.9615 60.5358 26.1129C59.0186 25.2386 57.8358 24.0429 56.9872 22.5258C56.1386 20.9829 55.7144 19.26 55.7144 17.3572C55.7144 15.4543 56.1386 13.7443 56.9872 12.2272C57.8358 10.6843 59.0058 9.48861 60.4972 8.64004C62.0144 7.76576 63.7115 7.32861 65.5886 7.32861ZM65.5115 10.5686C63.9944 10.5686 62.6829 11.0443 61.5772 11.9958C60.4972 12.9472 59.8286 14.1686 59.5715 15.66H71.4129C71.2586 14.1172 70.6286 12.8829 69.5229 11.9572C68.4429 11.0315 67.1058 10.5686 65.5115 10.5686Z" fill="white"/>
<path d="M86.8014 27.3858C84.3843 27.3858 82.34 26.82 80.6686 25.6886C79.0229 24.5315 78.0714 22.9372 77.8143 20.9058H81.4786C81.8129 22.0115 82.43 22.8343 83.33 23.3743C84.2557 23.8886 85.4643 24.1458 86.9557 24.1458C88.3443 24.1458 89.4629 23.9272 90.3114 23.49C91.16 23.0272 91.5843 22.4358 91.5843 21.7158C91.5843 20.9958 91.2886 20.43 90.6971 20.0186C90.1314 19.5815 89.0643 19.2343 87.4957 18.9772L85.2971 18.5915C80.6686 17.7686 78.3543 15.9043 78.3543 12.9986C78.3543 11.3015 79.1 9.93861 80.5914 8.91004C82.0829 7.85576 84.0371 7.32861 86.4543 7.32861C88.64 7.32861 90.5043 7.8429 92.0471 8.87147C93.59 9.87433 94.5671 11.2758 94.9786 13.0758H91.0829C90.7743 12.3043 90.1829 11.7129 89.3086 11.3015C88.4343 10.8643 87.47 10.6458 86.4157 10.6458C85.0786 10.6458 84.0114 10.8515 83.2143 11.2629C82.4429 11.6486 82.0571 12.1886 82.0571 12.8829C82.0571 13.5 82.3529 14.0143 82.9443 14.4258C83.5357 14.8115 84.4871 15.1072 85.7986 15.3129L88.0357 15.6986C90.6586 16.1358 92.51 16.8558 93.59 17.8586C94.67 18.8358 95.21 20.1215 95.21 21.7158C95.21 23.4129 94.4514 24.7886 92.9343 25.8429C91.4429 26.8715 89.3986 27.3858 86.8014 27.3858Z" fill="white"/>
<path d="M123.547 7.71433H127.019V25.4572C127.019 28.1829 126.17 30.2786 124.473 31.7443C122.802 33.2101 120.526 33.9429 117.646 33.9429C115.28 33.9429 113.313 33.4029 111.744 32.3229C110.202 31.2686 109.263 29.8029 108.929 27.9258H112.554C112.837 28.8772 113.429 29.5972 114.329 30.0858C115.229 30.6 116.399 30.8572 117.839 30.8572C121.516 30.8572 123.354 29.1858 123.354 25.8429V23.6058C122.532 24.6086 121.542 25.3929 120.384 25.9586C119.227 26.5243 117.98 26.8072 116.643 26.8072C114.972 26.8072 113.454 26.3829 112.092 25.5343C110.729 24.6858 109.662 23.5158 108.89 22.0243C108.119 20.5329 107.733 18.8743 107.733 17.0486C107.733 15.2486 108.119 13.6029 108.89 12.1115C109.687 10.62 110.754 9.45004 112.092 8.60147C113.454 7.7529 114.972 7.32861 116.643 7.32861C118.032 7.32861 119.317 7.63718 120.5 8.25433C121.709 8.84576 122.725 9.68147 123.547 10.7615V7.71433ZM117.453 23.6058C118.584 23.6058 119.613 23.3358 120.539 22.7958C121.465 22.23 122.184 21.4586 122.699 20.4815C123.213 19.5043 123.47 18.3986 123.47 17.1643C123.47 15.93 123.213 14.8243 122.699 13.8472C122.184 12.87 121.465 12.1115 120.539 11.5715C119.613 11.0058 118.584 10.7229 117.453 10.7229C116.322 10.7229 115.306 11.0058 114.406 11.5715C113.506 12.1115 112.799 12.87 112.284 13.8472C111.77 14.8243 111.513 15.93 111.513 17.1643C111.513 18.3986 111.77 19.5043 112.284 20.4815C112.799 21.4586 113.506 22.23 114.406 22.7958C115.306 23.3358 116.322 23.6058 117.453 23.6058Z" fill="white"/>
<path d="M99.6374 27V7.71429H103.302V27H99.6374ZM99.4446 4.24286V0H103.533V4.24286H99.4446Z" fill="white"/>
<path d="M99.4446 34.4572V30.2144H103.533V34.4572H99.4446Z" fill="white"/>
<path d="M28.0669 23.4129V26.8457H38.9826C46.2726 26.8457 52.3283 20.9443 52.3283 13.4229C52.3283 5.97857 46.234 0 38.9826 0H28.0669V3.43286C31.9626 4.66714 33.814 9.99 33.814 13.3843C33.814 16.8557 32.3869 22.3714 28.0669 23.4129ZM34.7398 22.3329C36.6298 19.7486 37.594 16.6243 37.594 13.3843C37.594 10.26 36.7069 7.09715 35.0483 4.47429L34.1998 3.20143H38.9826C44.6526 3.20143 48.5483 7.86857 48.5483 13.4229C48.5483 18.9771 44.6526 23.6443 38.9826 23.6443H33.7755L34.7398 22.3329Z" fill="white"/>
<path d="M133.929 26.7859L133.929 21.6527L133.929 17.6495C133.929 12.9037 137.598 9.64303 141.964 9.64303C146.331 9.64303 150 12.9037 150 17.6495L150 22.0078L150 26.7859" stroke="white" stroke-width="3.75"/>
<path d="M24.2615 23.4129V26.8457H13.3458C6.05575 26.8457 3.43323e-05 20.9443 3.43323e-05 13.4229C3.43323e-05 5.97857 6.09432 0 13.3458 0H24.2615V3.43286C20.3658 4.66714 18.5143 9.99 18.5143 13.3843C18.5143 16.8557 19.9415 22.3714 24.2615 23.4129ZM17.5886 22.3329C15.6986 19.7486 14.7343 16.6243 14.7343 13.3843C14.7343 10.26 15.6215 7.09715 17.28 4.47429L18.1286 3.20143H13.3458C7.67575 3.20143 3.78004 7.86857 3.78004 13.4229C3.78004 18.9771 7.67575 23.6443 13.3458 23.6443H18.5529L17.5886 22.3329Z" fill="white"/>
</svg>
