<svg width="130" height="30" viewBox="0 0 130 30" fill="none" xmlns="http://www.w3.org/2000/svg">
<path d="M115 0C115 8.28427 121.716 15 130 15C121.716 15 115 21.7157 115 30C115 21.7157 108.284 15 100 15C108.284 15 115 8.28427 115 0Z" fill="#3D3D3D"/>
<path d="M65 0C65 8.28427 71.7157 15 80 15C71.7157 15 65 21.7157 65 30C65 21.7157 58.2843 15 50 15C58.2843 15 65 8.28427 65 0Z" fill="#3D3D3D"/>
<path d="M15 0C15 8.28427 21.7157 15 30 15C21.7157 15 15 21.7157 15 30C15 21.7157 8.28427 15 0 15C8.28427 15 15 8.28427 15 0Z" fill="#3D3D3D"/>
</svg>
