<svg width="70" height="70" viewBox="0 0 70 70" fill="none" xmlns="http://www.w3.org/2000/svg">
<path d="M25 45.3244V59.5C25 61.433 29.4772 63 35 63C40.5228 63 45 61.433 45 59.5V45.3244M55 28C55 39.0457 46.0457 48 35 48C23.9543 48 15 39.0457 15 28C15 16.9543 23.9543 8 35 8C46.0457 8 55 16.9543 55 28Z" stroke="white"/>
<path d="M45 50C45 51.933 40.5228 53.5 35 53.5C29.4772 53.5 25 51.933 25 50" stroke="white"/>
<path d="M45 55C45 56.933 40.5228 58.5 35 58.5C29.4772 58.5 25 56.933 25 55" stroke="white"/>
<path d="M36 48V27.5C36 25.0147 38.0147 23 40.5 23C42.9853 23 45 25.0147 45 27.5C45 29.9853 42.9853 32 40.5 32H29.5C27.0147 32 25 29.9853 25 27.5C25 25.0147 27.0147 23 29.5 23C31.9853 23 34 25.0147 34 27.5V48" stroke="white"/>
</svg>
