<svg width="28" height="28" viewBox="0 0 28 28" fill="none" xmlns="http://www.w3.org/2000/svg">
<path d="M11.8118 18.8596C11.2975 19.323 10.538 20.0023 9.86215 20.6045C9.45731 20.9652 9.08181 21.2988 8.80626 21.5424C8.66861 21.6641 8.55526 21.7639 8.47546 21.8335C8.4358 21.8682 8.40316 21.8964 8.37955 21.9166C8.36817 21.9263 8.35645 21.9361 8.3462 21.9445C8.34179 21.9481 8.33312 21.9551 8.32302 21.9626C8.31894 21.9657 8.30717 21.9744 8.29173 21.9843C8.28482 21.9887 8.2677 21.9995 8.24469 22.011C8.23278 22.0168 8.2029 22.0295 8.18475 22.0362C8.15566 22.0453 8.07396 22.0609 8.0212 22.0637C7.88346 22.0443 7.68895 21.9374 7.63093 21.8763C7.60371 21.8389 7.56782 21.7746 7.55693 21.7495C7.53975 21.7066 7.53259 21.6708 7.53073 21.6615L7.53067 21.6612C7.52571 21.6365 7.5237 21.6163 7.52317 21.6111L7.52314 21.6108C7.52168 21.5962 7.52101 21.5833 7.52074 21.5779C7.52005 21.5642 7.51957 21.5483 7.51919 21.5332C7.5184 21.5015 7.51767 21.4566 7.51698 21.4007C7.51558 21.2882 7.51424 21.1234 7.51297 20.9127C7.51043 20.4909 7.50814 19.8816 7.50622 19.1303C7.50238 17.6275 7.5 15.555 7.5 13.2755C7.5 10.2909 7.50287 8.2186 7.50945 6.89336C7.51274 6.23111 7.51696 5.7535 7.52225 5.44128C7.52488 5.28592 7.52784 5.16766 7.53127 5.08692C7.53292 5.04809 7.53499 5.00995 7.53801 4.97834C7.53921 4.96577 7.54209 4.93676 7.54877 4.90453C7.54881 4.90431 7.54886 4.90407 7.54891 4.90382C7.55128 4.89237 7.56073 4.84664 7.58469 4.79404C7.59489 4.77164 7.62822 4.70052 7.70051 4.63352C7.7887 4.55179 7.96896 4.45373 8.19005 4.52273C8.2468 4.54045 8.28827 4.56524 8.29428 4.56883C8.29453 4.56899 8.29473 4.5691 8.29485 4.56918C8.30807 4.57695 8.3182 4.58372 8.32304 4.58702C8.33329 4.59397 8.34134 4.59999 8.34476 4.60256C8.35259 4.60845 8.35969 4.61409 8.36411 4.61763C8.37385 4.62542 8.38559 4.63507 8.39801 4.64536C8.42347 4.66646 8.45935 4.69658 8.5044 4.73462C8.59485 4.811 8.7262 4.92265 8.89361 5.06541C9.22862 5.35109 9.71009 5.76312 10.3021 6.2707C11.4863 7.28596 13.1138 8.6844 14.8989 10.221C17.3789 12.3557 18.999 13.755 19.9932 14.623C20.4898 15.0566 20.8328 15.3599 21.0494 15.5567C21.1566 15.6542 21.2382 15.7304 21.2932 15.7852C21.3184 15.8103 21.3496 15.8423 21.376 15.8746L21.3766 15.8753C21.3858 15.8865 21.4189 15.9268 21.4464 15.9822L21.4467 15.9828C21.457 16.0034 21.4999 16.0895 21.5 16.2082C21.5001 16.2775 21.4854 16.379 21.4202 16.4804C21.3521 16.5863 21.2566 16.6488 21.1699 16.6804L21.1696 16.6805C21.134 16.6934 21.1044 16.6994 21.0976 16.7008C21.0856 16.7033 21.0755 16.705 21.0693 16.7059C21.0566 16.7079 21.0448 16.7094 21.0363 16.7104C21.0187 16.7124 20.998 16.7144 20.9767 16.7163C20.9331 16.7203 20.8738 16.725 20.802 16.7303C20.6577 16.741 20.4547 16.7548 20.2085 16.7707C19.7159 16.8027 19.0461 16.8434 18.3178 16.8853M11.8118 18.8596L18.2891 16.3861M11.8118 18.8596L12.6849 20.7252L13.1378 20.5132L12.6849 20.7252C13.0039 21.4069 13.2948 22.0276 13.5065 22.4785C13.6123 22.7039 13.6984 22.8871 13.7584 23.0143L13.8282 23.1622L13.8478 23.2032L13.8549 23.2178L13.8604 23.2286C13.8614 23.2306 13.8642 23.236 13.8679 23.2427C13.8696 23.2457 13.8736 23.2527 13.8789 23.2614C13.8816 23.2658 13.8883 23.2762 13.8925 23.2824C13.8989 23.2915 13.9173 23.3155 13.9304 23.3309L13.9303 23.331C13.9304 23.331 13.9304 23.3311 13.9305 23.3311C13.9308 23.3315 13.9311 23.3318 13.9314 23.3321L13.9315 23.332C14.0221 23.4118 14.1857 23.4855 14.2451 23.4964C14.2777 23.4992 14.3302 23.4994 14.35 23.498C14.3846 23.4949 14.4113 23.4887 14.4188 23.487C14.4385 23.4824 14.4541 23.4775 14.4585 23.4761L14.4586 23.4761C14.4706 23.4723 14.4812 23.4685 14.4863 23.4666C14.4984 23.4622 14.5128 23.4568 14.5269 23.4513C14.5563 23.44 14.5973 23.4238 14.6472 23.4039C14.7476 23.3638 14.8898 23.3065 15.0592 23.2379C15.3983 23.1004 15.8497 22.9163 16.3011 22.7314C16.7526 22.5466 17.2048 22.3607 17.5457 22.2197C17.716 22.1492 17.8593 22.0897 17.9609 22.047C18.0115 22.0257 18.0531 22.0081 18.083 21.9952C18.0976 21.9889 18.1116 21.9827 18.1233 21.9774C18.1287 21.9749 18.1372 21.971 18.1464 21.9665C18.1483 21.9656 18.1512 21.9641 18.1549 21.9622C18.1592 21.96 18.1644 21.9573 18.1702 21.9541C18.1754 21.9512 18.1853 21.9456 18.1972 21.938C18.2032 21.9342 18.2355 21.9139 18.2706 21.8811L18.2706 21.881C18.394 21.7654 18.4176 21.6286 18.4235 21.5895C18.4314 21.5361 18.4288 21.4935 18.4272 21.4747C18.4239 21.4347 18.4164 21.404 18.4141 21.3947C18.4082 21.371 18.4017 21.3526 18.3999 21.3473L18.3999 21.3472C18.3948 21.3328 18.3897 21.3201 18.3871 21.3138C18.381 21.2988 18.3734 21.2812 18.3657 21.2635C18.3497 21.227 18.3267 21.1756 18.2979 21.1123C18.2402 20.9851 18.1565 20.8029 18.0534 20.5798C17.8468 20.1332 17.5607 19.5192 17.2447 18.8455L16.7921 19.0579L17.2447 18.8455C16.9293 18.173 16.6427 17.5579 16.4351 17.1088C16.4187 17.0733 16.4028 17.0389 16.3875 17.0056M11.8118 18.8596L15.8564 17.0478C15.8609 17.0474 15.8656 17.0469 15.8703 17.0465C15.9821 17.0359 16.1518 17.0224 16.3774 17.0063C16.3807 17.0061 16.3841 17.0059 16.3875 17.0056M18.3178 16.8853L18.2891 16.3861M18.3178 16.8853C18.3178 16.8853 18.3178 16.8853 18.3178 16.8853L18.2891 16.3861M18.3178 16.8853C17.492 16.9328 16.837 16.9738 16.3875 17.0056M18.2891 16.3861C17.3407 16.4407 16.6147 16.4867 16.1654 16.5205C16.1729 16.5371 16.1811 16.5552 16.19 16.5748C16.2384 16.6817 16.3055 16.8279 16.3875 17.0056M8.53348 5.07338C8.53364 5.07169 8.53364 5.07213 8.5334 5.07428L8.53348 5.07338ZM7.71509 21.1688C7.71474 21.1691 7.71478 21.169 7.71515 21.1687L7.71509 21.1688ZM15.9549 16.9653C15.9101 17.0007 15.8686 17.0207 15.8481 17.0297L16.144 16.5732C16.1444 16.808 15.9907 16.9369 15.9549 16.9653ZM17.9288 21.5161C17.9073 21.5363 14.3125 23.0083 14.3051 23L17.9288 21.5161ZM16.1412 16.5223C16.1428 16.5371 16.1439 16.5541 16.144 16.5725L16.1412 16.5223Z" stroke="white"/>
</svg>
