<svg width="201" height="104" viewBox="0 0 201 104" fill="none" xmlns="http://www.w3.org/2000/svg">
<path d="M108.135 90.4507V103.581H149.886C177.769 103.581 200.931 81.0089 200.931 52.2408C200.931 23.7678 177.621 0.900879 149.886 0.900879H108.135V14.0309C123.036 18.7518 130.117 39.1108 130.117 52.0933C130.117 65.3708 124.658 86.4674 108.135 90.4507ZM133.658 86.3199C140.887 76.4355 144.575 64.4857 144.575 52.0933C144.575 40.1435 141.182 28.0461 134.838 18.0142L131.592 13.1457H149.886C171.573 13.1457 186.473 30.9967 186.473 52.2408C186.473 73.4849 171.573 91.3359 149.886 91.3359H129.969L133.658 86.3199Z" fill="white"/>
<path d="M93.5801 90.4507V103.581H51.8295C23.9466 103.581 0.784668 81.0089 0.784668 52.2408C0.784668 23.7678 24.0942 0.900879 51.8295 0.900879H93.5801V14.0309C78.6797 18.7518 71.5984 39.1108 71.5984 52.0933C71.5984 65.3708 77.0569 86.4674 93.5801 90.4507ZM68.0577 86.3199C60.8288 76.4355 57.1406 64.4857 57.1406 52.0933C57.1406 40.1435 60.5337 28.0461 66.8774 18.0142L70.1231 13.1457H51.8295C30.1428 13.1457 15.2425 30.9967 15.2425 52.2408C15.2425 73.4849 30.1428 91.3359 51.8295 91.3359H71.7459L68.0577 86.3199Z" fill="white"/>
</svg>
