<svg width="70" height="70" viewBox="0 0 70 70" fill="none" xmlns="http://www.w3.org/2000/svg">
<path d="M45.7349 29.6636V28.5058C45.7349 26.6678 44.2756 25.1112 42.4265 25.1112C41.0972 25.1112 39.9573 25.91 39.4302 27.0627M45.7349 29.6636C46.278 28.5562 47.3947 27.7958 48.6916 27.7958C50.5406 27.7958 52 29.3524 52 31.1904V42.3731C52 44.0005 51.4193 46.7409 50.7709 49.3443C50.1016 52.0316 49.289 54.8397 48.7078 56.7375L48.3211 58H27.7641L27.2569 56.937C26.5595 55.4751 25.3717 52.9854 24.8081 52.0042L24.805 51.9988C23.9904 50.5696 22.9188 48.8901 21.7482 47.066C21.6701 46.9443 21.5916 46.822 21.5127 46.6991L21.367 46.472L21.3659 46.4704C19.6268 43.7742 17.6356 40.6832 15.8203 37.4191C15.5374 36.9252 15.2076 36.2366 15.068 35.4893C14.9287 34.7439 14.9266 33.5754 15.8251 32.6607C16.4551 32.0193 17.309 31.6916 18.1593 31.6916C19.0019 31.6916 19.8518 32.0276 20.4737 32.6607L20.5146 32.7024L26.5087 39.6629V16.3946C26.5087 14.5216 27.9825 13 29.8171 13C31.6661 13 33.1255 14.5566 33.1255 16.3946V24.923M45.7349 29.6636V36.4M39.4302 27.0627V26.3662C39.4302 24.5282 37.9708 22.9715 36.1218 22.9715C34.7924 22.9715 33.6525 23.7704 33.1255 24.923M39.4302 27.0627V33.7M33.1255 24.923V31" stroke="white" stroke-linecap="round" stroke-linejoin="round"/>
</svg>
