<svg width="116" height="120" viewBox="0 0 116 120" fill="none" xmlns="http://www.w3.org/2000/svg">
<path d="M58 0.920306L70.5589 20.3273L70.7796 20.6683L71.1586 20.5221L92.7262 12.2035L91.4794 35.2861L91.4575 35.6917L91.8501 35.7962L114.188 41.7434L99.6119 59.6847L99.3558 60L99.6119 60.3153L114.188 78.2566L91.8501 84.2038L91.4575 84.3083L91.4794 84.714L92.7262 107.796L71.1586 99.4779L70.7796 99.3317L70.5589 99.6727L58 119.08L45.4411 99.6727L45.2204 99.3317L44.8414 99.4779L23.2738 107.796L24.5206 84.714L24.5425 84.3083L24.1499 84.2038L1.81187 78.2566L16.3881 60.3153L16.6442 60L16.3881 59.6847L1.81187 41.7434L24.1499 35.7962L24.5425 35.6917L24.5206 35.2861L23.2738 12.2035L44.8414 20.5221L45.2204 20.6683L45.4411 20.3273L58 0.920306Z" stroke="white"/>
</svg>
