<svg width="70" height="70" viewBox="0 0 70 70" fill="none" xmlns="http://www.w3.org/2000/svg">
<path d="M43.672 23.8C34.2056 25.7499 26.7499 33.2056 24.8 42.672C22.8501 33.2056 15.3944 25.7499 5.92803 23.8C15.3944 21.8501 22.8501 14.3944 24.8 4.92803C26.7499 14.3944 34.2056 21.8501 43.672 23.8Z" stroke="white"/>
<path d="M65.6284 44.7999C60.0382 46.2373 55.6372 50.6383 54.1998 56.2285C52.7624 50.6383 48.3614 46.2373 42.7712 44.7999C48.3614 43.3625 52.7624 38.9615 54.1998 33.3713C55.6372 38.9615 60.0382 43.3625 65.6284 44.7999Z" stroke="white"/>
<path d="M39.6056 58.8001C35.8736 59.9297 32.9297 62.8736 31.8001 66.6056C30.6705 62.8736 27.7266 59.9297 23.9946 58.8001C27.7266 57.6705 30.6705 54.7266 31.8001 50.9946C32.9297 54.7266 35.8736 57.6705 39.6056 58.8001Z" stroke="white"/>
</svg>
