<svg width="70" height="70" viewBox="0 0 70 70" fill="none" xmlns="http://www.w3.org/2000/svg">
<path d="M27.0353 51.2737C32.8262 51.2737 37.5207 46.5792 37.5207 40.7882C37.5207 34.9972 32.8262 30.3027 27.0353 30.3027C21.2443 30.3027 16.5498 34.9972 16.5498 40.7882C16.5498 46.5792 21.2443 51.2737 27.0353 51.2737Z" stroke="white" stroke-width="1.09303" stroke-miterlimit="10"/>
<path d="M9 61.9969C10.8276 58.8308 13.4564 56.2016 16.6222 54.3736C19.788 52.5456 23.3793 51.5833 27.035 51.5833C30.6907 51.5833 34.2819 52.5456 37.4478 54.3736C40.6136 56.2016 43.2424 58.8308 45.07 61.9969" stroke="white" stroke-width="1.09303" stroke-linecap="round" stroke-linejoin="round"/>
<path d="M51.6288 32.4885C51.6288 32.4885 41.7915 26.924 41.7915 20.1671C41.7917 18.9728 42.2014 17.8155 42.9509 16.8919C43.7004 15.9682 44.7434 15.3353 45.9027 15.1007C47.062 14.8661 48.2659 15.0443 49.3098 15.605C50.3537 16.1657 51.1731 17.0743 51.6288 18.1763L51.6288 18.1763C52.0844 17.0743 52.9038 16.1657 53.9477 15.605C54.9917 15.0443 56.1956 14.8661 57.3549 15.1007C58.5141 15.3353 59.5572 15.9682 60.3067 16.8919C61.0562 17.8155 61.4658 18.9728 61.466 20.1671C61.466 26.924 51.6288 32.4885 51.6288 32.4885Z" stroke="white" stroke-width="1.09303" stroke-linecap="round" stroke-linejoin="round"/>
</svg>
