<svg width="60" height="60" viewBox="0 0 60 60" fill="none" xmlns="http://www.w3.org/2000/svg">
<path d="M26.9999 43.0167C31.5412 43.0167 35.2225 39.3353 35.2225 34.7941C35.2225 30.2529 31.5412 26.5715 26.9999 26.5715C22.4587 26.5715 18.7773 30.2529 18.7773 34.7941C18.7773 39.3353 22.4587 43.0167 26.9999 43.0167Z" stroke="white" stroke-width="0.857143" stroke-miterlimit="10"/>
<path d="M12.8569 51.4258C14.2901 48.943 16.3516 46.8812 18.8342 45.4477C21.3168 44.0142 24.133 43.2595 26.9998 43.2595C29.8665 43.2595 32.6828 44.0142 35.1654 45.4477C37.648 46.8812 39.7095 48.943 41.1426 51.4258" stroke="white" stroke-width="0.857143" stroke-linecap="round" stroke-linejoin="round"/>
<path d="M46.2856 28.2858C46.2856 28.2858 38.5713 23.9222 38.5713 18.6235C38.5714 17.687 38.8927 16.7794 39.4805 16.0551C40.0682 15.3308 40.8861 14.8345 41.7952 14.6505C42.7043 14.4665 43.6484 14.6063 44.4671 15.046C45.2857 15.4856 45.9283 16.1981 46.2856 17.0623L46.2856 17.0623C46.6429 16.1981 47.2855 15.4856 48.1041 15.046C48.9227 14.6063 49.8668 14.4665 50.7759 14.6505C51.685 14.8345 52.503 15.3308 53.0907 16.0551C53.6784 16.7794 53.9997 17.687 53.9999 18.6235C53.9999 23.9222 46.2856 28.2858 46.2856 28.2858Z" stroke="white" stroke-width="0.857143" stroke-linecap="round" stroke-linejoin="round"/>
</svg>
